<svg width="60" height="60" viewBox="0 0 60 60" fill="none" xmlns="http://www.w3.org/2000/svg">
<g filter="url(#filter0_dd_4:58)">
<rect x="6" y="6" width="46" height="46" rx="12" fill="white" fill-opacity="0.5" shape-rendering="crispEdges"/>
</g>
<path fill-rule="evenodd" clip-rule="evenodd" d="M29.6139 18.2106C29.2528 17.9298 28.7472 17.9298 28.3861 18.2106L19.3861 25.2106C19.1425 25.4001 19 25.6914 19 26V37C19 37.7957 19.3161 38.5587 19.8787 39.1213C20.4413 39.6839 21.2043 40 22 40H26H32H36C36.7957 40 37.5587 39.6839 38.1213 39.1213C38.6839 38.5587 39 37.7957 39 37V26C39 25.6914 38.8575 25.4001 38.6139 25.2106L29.6139 18.2106ZM33 38H36C36.2652 38 36.5196 37.8946 36.7071 37.7071C36.8946 37.5196 37 37.2652 37 37V26.4891L29 20.2669L21 26.4891V37C21 37.2652 21.1054 37.5196 21.2929 37.7071C21.4804 37.8946 21.7348 38 22 38H25V29C25 28.4477 25.4477 28 26 28H32C32.5523 28 33 28.4477 33 29V38ZM27 38V30H31V38H27Z" fill="url(#paint0_linear_4:58)"/>
<defs>
<filter id="filter0_dd_4:58" x="0" y="0" width="60" height="60" filterUnits="userSpaceOnUse" color-interpolation-filters="sRGB">
<feFlood flood-opacity="0" result="BackgroundImageFix"/>
<feColorMatrix in="SourceAlpha" type="matrix" values="0 0 0 0 0 0 0 0 0 0 0 0 0 0 0 0 0 0 127 0" result="hardAlpha"/>
<feOffset dx="-2" dy="-2"/>
<feGaussianBlur stdDeviation="2"/>
<feComposite in2="hardAlpha" operator="out"/>
<feColorMatrix type="matrix" values="0 0 0 0 0.816667 0 0 0 0 0.816667 0 0 0 0 0.816667 0 0 0 0.15 0"/>
<feBlend mode="normal" in2="BackgroundImageFix" result="effect1_dropShadow_4:58"/>
<feColorMatrix in="SourceAlpha" type="matrix" values="0 0 0 0 0 0 0 0 0 0 0 0 0 0 0 0 0 0 127 0" result="hardAlpha"/>
<feOffset dx="4" dy="4"/>
<feGaussianBlur stdDeviation="2"/>
<feComposite in2="hardAlpha" operator="out"/>
<feColorMatrix type="matrix" values="0 0 0 0 0.6125 0 0 0 0 0.6125 0 0 0 0 0.6125 0 0 0 0.1 0"/>
<feBlend mode="normal" in2="effect1_dropShadow_4:58" result="effect2_dropShadow_4:58"/>
<feBlend mode="normal" in="SourceGraphic" in2="effect2_dropShadow_4:58" result="shape"/>
</filter>
<linearGradient id="paint0_linear_4:58" x1="22" y1="23" x2="64" y2="65" gradientUnits="userSpaceOnUse">
<stop offset="0.0370641" stop-color="#FF8001"/>
<stop offset="0.370021" stop-color="#FFB366"/>
<stop offset="0.582424" stop-color="#D0D0D0"/>
<stop offset="1" stop-color="#D0D0D0" stop-opacity="0.74"/>
</linearGradient>
</defs>
</svg>
