<svg width="24" height="24" viewBox="0 0 24 24" fill="none" xmlns="http://www.w3.org/2000/svg">
<path fill-rule="evenodd" clip-rule="evenodd" d="M19 20C19.2652 20 19.5196 19.8946 19.7071 19.7071C19.8946 19.5196 20 19.2652 20 19V5C20 4.73478 19.8946 4.48043 19.7071 4.29289C19.5196 4.10536 19.2652 4 19 4H15C14.4477 4 14 3.55228 14 3C14 2.44772 14.4477 2 15 2H19C19.7957 2 20.5587 2.31607 21.1213 2.87868C21.6839 3.44129 22 4.20435 22 5V19C22 19.7956 21.6839 20.5587 21.1213 21.1213C20.5587 21.6839 19.7956 22 19 22H15C14.4477 22 14 21.5523 14 21C14 20.4477 14.4477 20 15 20H19ZM10.7071 6.29289C10.3166 5.90237 9.68342 5.90237 9.29289 6.29289C8.90237 6.68342 8.90237 7.31658 9.29289 7.70711L12.5858 11H3C2.44772 11 2 11.4477 2 12C2 12.5523 2.44772 13 3 13H12.5858L9.29289 16.2929C8.90237 16.6834 8.90237 17.3166 9.29289 17.7071C9.68342 18.0976 10.3166 18.0976 10.7071 17.7071L15.7065 12.7077L15.7071 12.7071C15.7093 12.7049 15.7115 12.7027 15.7136 12.7005C15.9038 12.5069 15.9992 12.2551 16 12.003M15.7136 11.2995C15.8063 11.3938 15.8764 11.502 15.9241 11.6172C15.8746 11.4979 15.8027 11.3902 15.7136 11.2995ZM10.7071 6.29289L15.7065 11.2923L10.7071 6.29289Z" fill="url(#paint0_linear_73:2765)"/>
<defs>
<linearGradient id="paint0_linear_73:2765" x1="-13" y1="-13" x2="22" y2="22" gradientUnits="userSpaceOnUse">
<stop stop-color="#FF8000"/>
<stop offset="0.388006" stop-color="#FF8000" stop-opacity="0.9"/>
<stop offset="0.446709" stop-color="#D0D0D0"/>
<stop offset="0.978816" stop-color="#D0D0D0" stop-opacity="0.9"/>
</linearGradient>
</defs>
</svg>
