<svg width="78" height="47" viewBox="0 0 78 47" fill="none" xmlns="http://www.w3.org/2000/svg">
<path d="M11.9157 43.4067C9.93825 46.1684 5.61419 45.0125 5.2623 41.6279L1.84949 8.80908C1.58118 6.22883 3.96631 4.17787 6.46 4.84457L29.0482 10.8836C31.5418 11.5505 32.5987 14.5216 31.0911 16.6271L11.9157 43.4067Z" fill="#F2A800" fill-opacity="0.21"/>
<path d="M50.4912 18.9397C48.314 19.2064 46.7724 19.4397 45.8661 19.6397L44.971 23.2065C44.8936 23.5287 44.7776 23.7454 44.6229 23.8565C44.4792 23.9676 44.1863 24.0232 43.7443 24.0232C43.4017 24.0232 43.1475 23.9621 42.9817 23.8399C42.827 23.7287 42.7496 23.5343 42.7496 23.2565C42.7496 23.1343 42.7662 23.0176 42.7994 22.9065L45.0704 13.8896C45.192 13.4007 45.3191 13.0784 45.4517 12.9229C45.5954 12.7562 45.8496 12.6729 46.2143 12.6729C46.5126 12.6729 46.7834 12.7062 47.0265 12.7729C47.2807 12.8396 47.4133 12.9396 47.4244 13.0729C47.4244 13.0951 47.3526 13.3951 47.2089 13.9729C46.9879 14.8285 46.6729 16.1285 46.264 17.873C47.8996 17.5397 49.4523 17.3119 50.9222 17.1897L51.6847 14.0896C51.7952 13.6451 51.9444 13.3173 52.1323 13.1062C52.3312 12.884 52.5965 12.7396 52.928 12.6729C53.3369 12.7507 53.6021 12.8173 53.7237 12.8729C53.8563 12.9173 53.9447 12.9896 53.9889 13.0896C53.8453 13.5007 53.7348 13.884 53.6574 14.2396C53.5911 14.584 53.5524 14.7896 53.5414 14.8563C53.3977 15.6341 53.2264 16.4285 53.0275 17.2397C53.4585 17.4286 53.674 17.6841 53.674 18.0064C53.674 18.3286 53.3314 18.6008 52.6462 18.823C52.5246 19.2675 52.2981 20.2342 51.9665 21.7231C51.8892 22.1343 51.7787 22.6454 51.635 23.2565C51.4803 23.8676 51.2371 24.1732 50.9056 24.1732C49.8889 24.1732 49.3805 23.9343 49.3805 23.4565C49.3805 23.3565 49.7507 21.8509 50.4912 18.9397ZM61.1339 23.7565C61.0897 23.9454 60.9902 24.0732 60.8355 24.1399C60.6808 24.2176 60.4763 24.2565 60.2221 24.2565C59.4596 24.2565 59.0783 24.0843 59.0783 23.7399L59.1778 23.1065C58.8683 23.3398 58.5036 23.5732 58.0837 23.8065C57.6637 24.0399 57.3156 24.1565 57.0393 24.1565C55.4037 24.1565 54.5859 23.6176 54.5859 22.5398C54.5859 20.7064 55.1329 18.7175 56.227 16.573C56.3597 16.3174 56.4978 16.1341 56.6415 16.023C56.7962 15.9119 57.0559 15.8563 57.4206 15.8563C57.8074 15.8563 58.0947 15.9119 58.2826 16.023C58.4815 16.123 58.581 16.2452 58.581 16.3896C58.581 16.423 58.5202 16.523 58.3986 16.6897C58.2771 16.8341 58.1721 16.9786 58.0837 17.123C57.0449 18.8675 56.5254 20.5675 56.5254 22.2231C56.5254 22.3676 56.5807 22.4954 56.6912 22.6065C56.8017 22.7176 56.9012 22.7732 56.9896 22.7732C57.2327 22.7732 57.6416 22.6565 58.2163 22.4231C58.802 22.1898 59.2496 21.9509 59.5591 21.7065L59.8906 20.3564C60.2884 18.7453 60.5371 17.7564 60.6366 17.3897C60.7581 16.9452 60.9129 16.5841 61.1007 16.3063C61.2997 16.0174 61.6091 15.873 62.029 15.873C62.6148 15.873 62.9076 16.0508 62.9076 16.4063C62.9076 16.4619 62.8911 16.5341 62.8579 16.623C62.8358 16.7008 62.8192 16.7674 62.8082 16.823L62.1451 19.5231C61.6146 21.6676 61.2775 23.0787 61.1339 23.7565ZM68.8776 17.3563C68.745 17.2897 68.5792 17.2563 68.3803 17.2563C67.883 17.2563 67.3857 17.3563 66.8884 17.5563C66.391 17.7564 66.1424 18.0119 66.1424 18.323C66.1424 18.5453 66.2419 18.723 66.4408 18.8564C66.6397 18.9897 66.9547 19.1397 67.3857 19.3064C67.8498 19.4953 68.2256 19.6731 68.5129 19.8397C68.8003 20.0064 69.0489 20.2509 69.2589 20.5731C69.4799 20.8842 69.5904 21.2842 69.5904 21.7731C69.5904 22.5732 69.2589 23.1898 68.5958 23.6232C67.9438 24.0454 67.0652 24.2565 65.96 24.2565C65.4185 24.2565 64.9157 24.1732 64.4515 24.0065C63.9874 23.8399 63.6171 23.6287 63.3409 23.3732C63.0756 23.1065 62.9319 22.8454 62.9098 22.5898C62.9098 22.3231 63.0259 22.1065 63.258 21.9398C63.49 21.762 63.8161 21.6453 64.236 21.5898C64.2471 21.812 64.3631 22.0231 64.5841 22.2231C64.8052 22.412 65.0649 22.5676 65.3633 22.6898C65.6727 22.8009 65.9379 22.8565 66.159 22.8565C66.5347 22.8565 66.8773 22.7565 67.1868 22.5565C67.4962 22.3454 67.6509 22.1009 67.6509 21.8231C67.6509 21.312 67.1591 20.9064 66.1755 20.6064C65.5456 20.4175 65.0594 20.1175 64.7168 19.7064C64.3852 19.2953 64.2194 18.8619 64.2194 18.4064C64.2194 17.5063 64.6228 16.8619 65.4296 16.473C66.2474 16.073 67.2862 15.873 68.5461 15.873C69.2534 15.873 69.8004 15.9563 70.1872 16.123C70.574 16.2896 70.7674 16.5785 70.7674 16.9897C70.7674 17.2675 70.6624 17.5119 70.4525 17.723C70.2535 17.9341 69.9662 18.0397 69.5904 18.0397C69.2589 18.0397 69.0434 18.0175 68.9439 17.973C68.8555 17.9175 68.8058 17.8286 68.7947 17.7064C68.7947 17.5952 68.8224 17.4786 68.8776 17.3563ZM73.4688 21.9398C73.4688 22.1954 73.513 22.3731 73.6014 22.4731C73.6898 22.5732 73.8556 22.6232 74.0987 22.6232C74.4192 22.6232 74.6844 22.5565 74.8944 22.4231C75.1154 22.2787 75.3807 22.0565 75.6901 21.7565C75.7785 21.6676 75.878 21.6231 75.9885 21.6231C76.1211 21.6231 76.2261 21.7231 76.3034 21.9231C76.3808 22.112 76.4195 22.3065 76.4195 22.5065C76.4195 22.7843 76.309 23.0565 76.0879 23.3232C75.8669 23.5898 75.5464 23.8065 75.1265 23.9732C74.7065 24.1399 74.2147 24.2232 73.6511 24.2232C72.8996 24.2232 72.3636 24.051 72.0431 23.7065C71.7337 23.3621 71.579 22.8343 71.579 22.1231C71.579 22.0231 71.6287 21.762 71.7282 21.3398C71.8276 20.9175 71.9547 20.412 72.1094 19.8231L72.5736 17.923L71.5624 18.0064C71.4298 18.0064 71.3303 17.9564 71.264 17.8564C71.1977 17.7564 71.1645 17.6341 71.1645 17.4897C71.1645 17.2119 71.264 16.9341 71.4629 16.6563C71.485 16.623 71.5955 16.5897 71.7945 16.5563C71.9934 16.523 72.2365 16.4897 72.5239 16.4563L72.9714 16.4063L73.3527 14.6896C73.4632 14.4007 73.629 14.1785 73.85 14.0229C74.0821 13.8562 74.2976 13.7729 74.4965 13.7729C74.7176 13.7729 74.9054 13.8396 75.0602 13.9729C75.2149 14.1063 75.2978 14.2618 75.3088 14.4396L74.8944 16.223C75.3254 16.1674 75.7232 16.123 76.0879 16.0896C76.4637 16.0452 76.7566 16.023 76.9665 16.023C77.3865 16.023 77.5965 16.2674 77.5965 16.7563C77.5965 16.9452 77.5136 17.1174 77.3478 17.273C77.1931 17.4175 77.0218 17.5063 76.8339 17.5397L74.5131 17.773L73.4688 21.9398Z" fill="#FF8000"/>
<path d="M6.25778 23.5287C6.25778 23.3041 6.3217 23.1274 6.44934 22.9991C6.59301 22.8546 6.78457 22.7263 7.02402 22.6139C7.10377 22.5657 7.39111 22.4213 7.88603 22.1805C8.39679 21.9398 8.88379 21.7552 9.34666 21.6268C9.49033 21.3059 9.70583 21.0411 9.99317 20.8324C10.2965 20.6236 10.6796 20.5194 11.1425 20.5194C11.4138 20.5194 11.6374 20.5755 11.813 20.6879C11.9885 20.7842 12.1082 20.9125 12.1721 21.0731C12.7628 20.8805 13.4731 20.7842 14.3032 20.7842C15.3408 20.7842 16.2348 21.0088 16.985 21.4583C17.7513 21.8916 18.326 22.4935 18.7091 23.2639C19.1082 24.0343 19.3077 24.901 19.3077 25.864C19.3077 26.0566 19.2837 26.3214 19.2359 26.6584C18.5814 30.4141 15.7878 32.2919 10.8552 32.2919C10.4082 32.2919 10.081 32.284 9.87345 32.2678L9.56216 33.4234C9.22694 34.6592 9.05932 35.2933 9.05932 35.3253C8.93168 35.887 8.73202 36.3204 8.4607 36.6254C8.20523 36.9304 7.78233 37.0828 7.19163 37.0828C6.69671 37.0828 6.32962 36.9945 6.09017 36.818C5.86675 36.6574 5.75494 36.3767 5.75494 35.9754C5.75494 35.7989 5.77889 35.6303 5.82678 35.4698L8.7241 24.2269C7.89395 24.4676 7.26347 24.7967 6.83246 25.214C6.65693 25.0214 6.51326 24.7726 6.40145 24.4676C6.30567 24.1467 6.25778 23.8337 6.25778 23.5287ZM10.3763 30.0289C10.5678 30.045 10.8392 30.053 11.1904 30.053C12.7069 30.053 13.9041 29.7641 14.7821 29.1863C15.676 28.6085 16.2507 27.7177 16.5062 26.514C16.554 26.2412 16.578 26.0405 16.578 25.9121C16.578 25.0134 16.3306 24.3473 15.8357 23.9139C15.3408 23.4645 14.6464 23.2398 13.7525 23.2398C13.2736 23.2398 12.659 23.3522 11.9088 23.5769C11.2862 26.0645 10.7754 28.2153 10.3763 30.0289ZM22.8377 22.4694C22.8377 21.9718 22.9893 21.5305 23.2927 21.1453C23.6119 20.7601 24.051 20.5675 24.6096 20.5675C25.2003 20.5675 25.7111 20.7522 26.1421 21.1212C26.5891 21.4903 26.8125 21.9077 26.8125 22.3731C26.8125 22.8385 26.5891 23.2398 26.1421 23.5769C25.6951 23.9139 25.1764 24.0824 24.5857 24.0824C24.011 24.0824 23.5721 23.938 23.2687 23.6491C22.9814 23.3441 22.8377 22.9509 22.8377 22.4694ZM25.3519 26.7307C24.5059 30.1974 23.8594 32.8055 23.4124 34.5549C23.3485 34.8118 23.3166 35.0926 23.3166 35.3976L23.3405 36.0717C23.3405 36.3444 23.2527 36.537 23.0772 36.6495C22.9175 36.7619 22.5664 36.8259 22.0236 36.842C21.4968 36.842 21.0977 36.7859 20.8263 36.6735C20.555 36.5611 20.4193 36.3204 20.4193 35.9513C20.4193 35.7748 20.6188 34.8359 21.0179 33.1345C21.4329 31.4332 21.9917 29.2183 22.694 26.4899L22.1433 25.7677C22.0954 25.7195 22.0715 25.6634 22.0715 25.5991C22.0715 25.4386 22.247 25.3103 22.5983 25.214C22.9495 25.1015 23.4363 25.0454 24.0589 25.0454C24.6017 25.0454 24.9448 25.206 25.0885 25.5269C25.2482 25.8319 25.3359 26.2331 25.3519 26.7307ZM34.8189 36.6254C30.7323 37.0908 28.4017 37.3637 27.8271 37.4439C27.2364 37.5082 26.933 37.5402 26.9172 37.5402C26.6298 37.5402 26.3743 37.5 26.1509 37.4198C25.9115 37.3397 25.7757 37.2352 25.7439 37.1069C25.7118 37.0267 25.6481 36.8822 25.5523 36.6735C25.4565 36.4648 25.4086 36.2883 25.4086 36.1439C25.4086 35.9994 25.4484 35.887 25.5284 35.8068C25.6081 35.7105 25.7836 35.6383 26.0551 35.5902C26.3104 35.542 26.4862 35.5179 26.5819 35.5179C27.3482 34.7155 28.3618 33.616 29.6229 32.2197C31.3788 30.2937 32.7118 28.8813 33.6217 27.9825L28.8567 28.44C28.3618 28.44 28.1144 28.1913 28.1144 27.6936C28.1144 27.2923 28.2581 26.8912 28.5454 26.4899C28.6252 26.3775 29.2556 26.2492 30.437 26.1047C31.6183 25.9603 32.9034 25.8319 34.2922 25.7195C35.6968 25.5912 36.5908 25.5269 36.974 25.5269C37.5805 25.5269 37.8839 25.8801 37.8839 26.5862C37.8839 26.7949 37.812 26.9955 37.6684 27.1881C37.5247 27.3646 37.349 27.5011 37.1416 27.5974L36.6148 28.0548C35.7368 28.9535 34.6592 30.1011 33.3822 31.4975L30.1736 34.9161C32.6958 34.5951 34.308 34.4346 35.0105 34.4346C35.617 34.4346 35.9204 34.7877 35.9204 35.4939C35.9204 35.7666 35.8007 36.0155 35.5612 36.2402C35.3376 36.4489 35.0902 36.5772 34.8189 36.6254ZM37.5632 35.9031C38.7763 34.4266 41.3065 31.7864 45.1537 27.9825L40.2211 28.44C39.7261 28.44 39.4788 28.1913 39.4788 27.6936C39.4788 27.2923 39.6224 26.8912 39.9098 26.4899C39.9895 26.3775 40.62 26.2492 41.8014 26.1047C42.9826 25.9603 44.2677 25.8319 45.6565 25.7195C47.0612 25.5912 47.9552 25.5269 48.3383 25.5269C48.9449 25.5269 49.2482 25.8801 49.2482 26.5862C49.2482 26.7788 49.0567 27.0838 48.6736 27.5011C48.2905 27.9183 47.9871 28.1831 47.7637 28.2955C47.0453 28.9535 46.3988 29.5876 45.8241 30.1974C45.2495 30.7913 44.5151 31.5776 43.6212 32.5567C42.4877 33.8086 41.7296 34.6351 41.3465 35.0364L42.9987 34.8198C45.0419 34.5629 46.1673 34.4346 46.3749 34.4346C46.9814 34.4346 47.2848 34.7877 47.2848 35.4939C47.2848 35.7666 47.165 36.0155 46.9256 36.2402C46.702 36.4489 46.4546 36.5772 46.1833 36.6254C42.0967 37.0908 39.7661 37.3637 39.1914 37.4439C38.6007 37.5082 38.2974 37.5402 38.2815 37.5402C38.0421 37.5402 37.8585 37.3397 37.7308 36.9383C37.619 36.5532 37.5632 36.2081 37.5632 35.9031ZM58.9604 36.3606C58.8486 36.6495 58.5852 36.842 58.1703 36.9383C57.7711 37.0508 57.42 37.1069 57.1167 37.1069C56.8293 37.1069 56.6378 37.0346 56.542 36.8902C56.4623 36.7619 56.3904 36.5611 56.3265 36.2883C56.2626 36.0155 56.2228 35.8309 56.2068 35.7346C55.5203 36.2 54.818 36.5532 54.0996 36.7939C53.3973 37.0508 52.8066 37.1791 52.3277 37.1791C51.9127 37.1791 51.4418 37.0426 50.915 36.7698C50.4042 36.497 49.9651 36.1278 49.598 35.6624C49.2309 35.197 49.0473 34.6833 49.0473 34.1216C49.0473 33.2229 49.3426 32.0753 49.9332 30.6789C50.5239 29.2826 51.3539 28.0627 52.4235 27.0196C53.5089 25.9764 54.7701 25.4547 56.2068 25.4547C57.4679 25.4547 58.5933 25.6553 59.583 26.0566C60.5726 26.4579 61.0676 27.0275 61.0676 27.7659C60.6205 28.6005 60.1337 29.8524 59.6069 31.5215C59.0962 33.1907 58.8407 34.4266 58.8407 35.229C58.8407 35.7587 58.8807 36.1359 58.9604 36.3606ZM56.2547 33.7123C56.3823 33.0062 56.5978 32.1715 56.9012 31.2086C57.2204 30.2295 57.6435 29.2505 58.1703 28.2714C58.0905 27.9505 57.835 27.7418 57.404 27.6455C56.989 27.5331 56.6138 27.477 56.2786 27.477C55.6879 27.477 55.0495 27.8783 54.363 28.6807C53.6766 29.4831 53.086 30.4221 52.5911 31.4975C52.1122 32.5567 51.8728 33.4155 51.8728 34.0735C51.8728 34.3944 51.9606 34.6272 52.1362 34.7716C52.3117 34.9 52.5353 34.9642 52.8066 34.9642C53.1737 34.9642 53.7565 34.8277 54.5546 34.5549C55.3687 34.266 55.9355 33.9851 56.2547 33.7123Z" fill="#FF8000"/>
<path d="M26.9792 22.2324C26.9792 23.3063 25.6198 24.1769 24.5847 24.1769C23.5496 24.1769 22.7428 23.4452 22.7428 22.3713C22.7428 21.2974 23.7185 20.2879 24.7536 20.2879C25.7888 20.2879 26.9792 21.1585 26.9792 22.2324Z" fill="#F2A800"/>
<path d="M8.37596 13.6213C9.90184 13.6213 11.1388 12.3776 11.1388 10.8434C11.1388 9.30924 9.90184 8.06555 8.37596 8.06555C6.85007 8.06555 5.6131 9.30924 5.6131 10.8434C5.6131 12.3776 6.85007 13.6213 8.37596 13.6213Z" fill="#FF8000"/>
<path d="M13.8096 18.0656C14.5725 18.0656 15.191 17.4438 15.191 16.6767C15.191 15.9096 14.5725 15.2878 13.8096 15.2878C13.0466 15.2878 12.4282 15.9096 12.4282 16.6767C12.4282 17.4438 13.0466 18.0656 13.8096 18.0656Z" fill="#FF8000"/>
<path d="M17.125 15.2878C17.888 15.2878 18.5064 14.6659 18.5064 13.8988C18.5064 13.1318 17.888 12.5099 17.125 12.5099C16.3621 12.5099 15.7436 13.1318 15.7436 13.8988C15.7436 14.6659 16.3621 15.2878 17.125 15.2878Z" fill="white"/>
<path d="M13.5333 27.6955C14.1437 27.6955 14.6385 27.1981 14.6385 26.5844C14.6385 25.9707 14.1437 25.4733 13.5333 25.4733C12.923 25.4733 12.4282 25.9707 12.4282 26.5844C12.4282 27.1981 12.923 27.6955 13.5333 27.6955Z" fill="white"/>
<path d="M6.53405 19.3619C7.04268 19.3619 7.455 18.9474 7.455 18.436C7.455 17.9246 7.04268 17.51 6.53405 17.51C6.02542 17.51 5.6131 17.9246 5.6131 18.436C5.6131 18.9474 6.02542 19.3619 6.53405 19.3619Z" fill="white"/>
<path d="M12.6123 37.5106C13.7313 37.5106 14.6384 36.5986 14.6384 35.4735C14.6384 34.3484 13.7313 33.4364 12.6123 33.4364C11.4934 33.4364 10.5862 34.3484 10.5862 35.4735C10.5862 36.5986 11.4934 37.5106 12.6123 37.5106Z" fill="white"/>
<path d="M23.5717 17.1399C25.1484 17.1399 26.4266 15.8547 26.4266 14.2694C26.4266 12.6841 25.1484 11.399 23.5717 11.399C21.9949 11.399 20.7167 12.6841 20.7167 14.2694C20.7167 15.8547 21.9949 17.1399 23.5717 17.1399Z" fill="#FF8000"/>
<path d="M9.38903 41.9552C10.3554 41.9552 11.1388 41.1675 11.1388 40.1959C11.1388 39.2242 10.3554 38.4366 9.38903 38.4366C8.42264 38.4366 7.63922 39.2242 7.63922 40.1959C7.63922 41.1675 8.42264 41.9552 9.38903 41.9552Z" fill="#FF8000"/>
<path d="M7.71342 0.695108C7.22532 0.551586 6.71382 0.83315 6.57107 1.32398C6.42832 1.81481 6.70829 2.32906 7.19658 2.47258L7.71342 0.695108ZM30.5562 8.37519L30.2978 9.26392L30.5562 8.37519ZM33.9227 18.0388L33.1691 17.5064L33.9227 18.0388ZM7.19658 2.47258L30.2978 9.26392L30.8148 7.48646L7.71342 0.695108L7.19658 2.47258ZM33.1691 17.5064L31.0146 20.589L32.5217 21.6537L34.6762 18.5712L33.1691 17.5064ZM30.2978 9.26392C33.8108 10.2967 35.2735 14.4955 33.1691 17.5064L34.6762 18.5712C37.5061 14.522 35.5391 8.87539 30.8148 7.48646L30.2978 9.26392Z" fill="#FF8000"/>
<path d="M29.3217 18.961L30.1162 19.4292L29.3217 18.961ZM29.4658 18.714L28.6995 18.2002L28.6848 18.2225L28.6712 18.2456L29.4658 18.714ZM31.1565 16.1641L31.9227 16.6778L31.1565 16.1641ZM29.2772 11.101L29.0329 11.9938L29.2772 11.101ZM6.65063 4.84334L6.89486 3.95056L6.65063 4.84334ZM2.00267 8.72443L1.08494 8.80202L2.00267 8.72443ZM4.77339 41.8944L3.85566 41.972L4.77339 41.8944ZM11.2653 43.9661L10.5601 43.3707L11.2653 43.9661ZM16.3567 39.3099C16.6839 38.9182 16.6332 38.3341 16.2436 38.0054C15.8543 37.6765 15.2733 37.7274 14.9462 38.1189L16.3567 39.3099ZM30.1162 19.4292L30.2604 19.1821L28.6712 18.2456L28.5271 18.4927L30.1162 19.4292ZM30.232 19.2275L31.9227 16.6778L30.3902 15.6505L28.6995 18.2002L30.232 19.2275ZM29.5214 10.2082L6.89486 3.95056L6.40639 5.73613L29.0329 11.9938L29.5214 10.2082ZM1.08494 8.80202L3.85566 41.972L5.69118 41.817L2.92038 8.64702L1.08494 8.80202ZM11.9706 44.5617L16.3567 39.3099L14.9462 38.1189L10.5601 43.3707L11.9706 44.5617ZM3.85566 41.972C4.19956 46.0891 9.32821 47.7257 11.9706 44.5617L10.5601 43.3707C8.97456 45.2693 5.89747 44.2872 5.69118 41.817L3.85566 41.972ZM31.9227 16.6778C33.5246 14.262 32.3056 10.9784 29.5214 10.2082L29.0329 11.9938C30.6067 12.4292 31.2955 14.2851 30.3902 15.6505L31.9227 16.6778ZM6.89486 3.95056C3.80724 3.09663 0.816938 5.5936 1.08494 8.80202L2.92038 8.64702C2.75958 6.72197 4.55376 5.22378 6.40639 5.73613L6.89486 3.95056ZM31.2521 20.2421C30.6973 20.8951 29.6842 20.1701 30.1162 19.4292L28.5271 18.4927C26.9586 21.1833 30.6378 23.8163 32.6526 21.445L31.2521 20.2421Z" fill="#FF8000"/>
</svg>
